<mxfile host="65bd71144e">
    <diagram id="_Mkg30b9JC64kD6E_I3T" name="第 1 页">
        <mxGraphModel dx="1002" dy="729" grid="1" gridSize="10" guides="1" tooltips="1" connect="1" arrows="1" fold="1" page="1" pageScale="1" pageWidth="3300" pageHeight="4681" math="0" shadow="0">
            <root>
                <mxCell id="0"/>
                <mxCell id="1" parent="0"/>
                <mxCell id="2" value="&lt;font face=&quot;Garamond&quot;&gt;&lt;span style=&quot;font-size: 18px;&quot;&gt;客户端&lt;/span&gt;&lt;/font&gt;" style="whiteSpace=wrap;html=1;hachureGap=4;fontFamily=Architects Daughter;fontSource=https%3A%2F%2Ffonts.googleapis.com%2Fcss%3Ffamily%3DArchitects%2BDaughter;fontSize=20;" parent="1" vertex="1">
                    <mxGeometry x="40" y="200" width="120" height="50" as="geometry"/>
                </mxCell>
                <mxCell id="10" value="" style="edgeStyle=none;html=1;" edge="1" parent="1" source="3" target="9">
                    <mxGeometry relative="1" as="geometry"/>
                </mxCell>
                <mxCell id="23" value="底层内存存储执行操作" style="edgeLabel;html=1;align=center;verticalAlign=middle;resizable=0;points=[];fontSize=14;fontColor=#FFFFFF;" vertex="1" connectable="0" parent="10">
                    <mxGeometry x="-0.2" y="2" relative="1" as="geometry">
                        <mxPoint x="16" y="2" as="offset"/>
                    </mxGeometry>
                </mxCell>
                <mxCell id="3" value="&lt;font face=&quot;Garamond&quot;&gt;&lt;span style=&quot;font-size: 18px;&quot;&gt;服务端&lt;/span&gt;&lt;/font&gt;" style="whiteSpace=wrap;html=1;hachureGap=4;fontFamily=Architects Daughter;fontSource=https%3A%2F%2Ffonts.googleapis.com%2Fcss%3Ffamily%3DArchitects%2BDaughter;fontSize=20;" parent="1" vertex="1">
                    <mxGeometry x="320" y="200" width="120" height="50" as="geometry"/>
                </mxCell>
                <mxCell id="4" value="" style="endArrow=classic;startArrow=classic;html=1;exitX=1;exitY=0.5;exitDx=0;exitDy=0;entryX=0;entryY=0.5;entryDx=0;entryDy=0;" parent="1" source="2" target="3" edge="1">
                    <mxGeometry width="50" height="50" relative="1" as="geometry">
                        <mxPoint x="390" y="260" as="sourcePoint"/>
                        <mxPoint x="440" y="210" as="targetPoint"/>
                    </mxGeometry>
                </mxCell>
                <mxCell id="5" value="&lt;font style=&quot;font-size: 14px;&quot;&gt;LightRPC&lt;/font&gt;" style="edgeLabel;html=1;align=center;verticalAlign=middle;resizable=0;points=[];" parent="4" vertex="1" connectable="0">
                    <mxGeometry x="-0.0091" y="-2" relative="1" as="geometry">
                        <mxPoint as="offset"/>
                    </mxGeometry>
                </mxCell>
                <mxCell id="14" value="" style="edgeStyle=none;html=1;" edge="1" parent="1" source="9" target="13">
                    <mxGeometry relative="1" as="geometry"/>
                </mxCell>
                <mxCell id="9" value="&lt;font face=&quot;Garamond&quot;&gt;&lt;span style=&quot;font-size: 18px;&quot;&gt;LightKVDb&lt;/span&gt;&lt;/font&gt;" style="whiteSpace=wrap;html=1;hachureGap=4;fontFamily=Architects Daughter;fontSource=https%3A%2F%2Ffonts.googleapis.com%2Fcss%3Ffamily%3DArchitects%2BDaughter;fontSize=20;" vertex="1" parent="1">
                    <mxGeometry x="620" y="200" width="120" height="50" as="geometry"/>
                </mxCell>
                <mxCell id="16" value="" style="edgeStyle=none;html=1;fontColor=#FFFFFF;" edge="1" parent="1" source="13" target="15">
                    <mxGeometry relative="1" as="geometry"/>
                </mxCell>
                <mxCell id="17" value="&lt;font style=&quot;font-size: 14px;&quot;&gt;ht[1]&lt;/font&gt;" style="edgeLabel;html=1;align=center;verticalAlign=middle;resizable=0;points=[];fontColor=#FFFFFF;" vertex="1" connectable="0" parent="16">
                    <mxGeometry y="3" relative="1" as="geometry">
                        <mxPoint as="offset"/>
                    </mxGeometry>
                </mxCell>
                <mxCell id="19" value="" style="edgeStyle=none;html=1;fontSize=14;fontColor=#FFFFFF;" edge="1" parent="1" source="13" target="18">
                    <mxGeometry relative="1" as="geometry"/>
                </mxCell>
                <mxCell id="20" value="ht[0]" style="edgeLabel;html=1;align=center;verticalAlign=middle;resizable=0;points=[];fontSize=14;fontColor=#FFFFFF;" vertex="1" connectable="0" parent="19">
                    <mxGeometry x="-0.0667" relative="1" as="geometry">
                        <mxPoint as="offset"/>
                    </mxGeometry>
                </mxCell>
                <mxCell id="13" value="&lt;div style=&quot;font-size: 16px; line-height: 24px;&quot;&gt;&lt;font face=&quot;Garamond&quot; style=&quot;&quot; color=&quot;#ffffff&quot;&gt;HashTable&lt;/font&gt;&lt;/div&gt;" style="whiteSpace=wrap;html=1;hachureGap=4;fontFamily=Architects Daughter;fontSource=https%3A%2F%2Ffonts.googleapis.com%2Fcss%3Ffamily%3DArchitects%2BDaughter;fontSize=20;" vertex="1" parent="1">
                    <mxGeometry x="620" y="280" width="120" height="50" as="geometry"/>
                </mxCell>
                <mxCell id="15" value="&lt;div style=&quot;line-height: 24px;&quot;&gt;&lt;span style=&quot;font-size: 16px;&quot;&gt;&lt;font style=&quot;&quot; face=&quot;Garamond&quot;&gt;Entry**&lt;/font&gt;&lt;/span&gt;&lt;br&gt;&lt;/div&gt;" style="whiteSpace=wrap;html=1;hachureGap=4;fontFamily=Architects Daughter;fontSource=https%3A%2F%2Ffonts.googleapis.com%2Fcss%3Ffamily%3DArchitects%2BDaughter;fontSize=20;" vertex="1" parent="1">
                    <mxGeometry x="620" y="380" width="120" height="50" as="geometry"/>
                </mxCell>
                <mxCell id="22" value="" style="edgeStyle=none;html=1;fontSize=14;fontColor=#FFFFFF;" edge="1" parent="1" source="18" target="21">
                    <mxGeometry relative="1" as="geometry"/>
                </mxCell>
                <mxCell id="18" value="&lt;div style=&quot;line-height: 24px;&quot;&gt;&lt;span style=&quot;font-size: 16px;&quot;&gt;&lt;font style=&quot;&quot; face=&quot;Garamond&quot;&gt;Entry**&lt;/font&gt;&lt;/span&gt;&lt;br&gt;&lt;/div&gt;" style="whiteSpace=wrap;html=1;hachureGap=4;fontFamily=Architects Daughter;fontSource=https%3A%2F%2Ffonts.googleapis.com%2Fcss%3Ffamily%3DArchitects%2BDaughter;fontSize=20;" vertex="1" parent="1">
                    <mxGeometry x="320" y="280" width="120" height="50" as="geometry"/>
                </mxCell>
                <mxCell id="26" value="" style="edgeStyle=none;html=1;fontSize=14;fontColor=#FFFFFF;" edge="1" parent="1" source="21" target="25">
                    <mxGeometry relative="1" as="geometry"/>
                </mxCell>
                <mxCell id="27" value="" style="edgeStyle=none;html=1;fontSize=14;fontColor=#FFFFFF;entryX=0;entryY=0;entryDx=0;entryDy=0;exitX=0.75;exitY=1;exitDx=0;exitDy=0;" edge="1" parent="1" source="21" target="24">
                    <mxGeometry relative="1" as="geometry"/>
                </mxCell>
                <mxCell id="21" value="&lt;div style=&quot;line-height: 24px;&quot;&gt;&lt;span style=&quot;font-size: 16px;&quot;&gt;&lt;font style=&quot;&quot; face=&quot;Garamond&quot;&gt;Entry*[2]&lt;/font&gt;&lt;/span&gt;&lt;br&gt;&lt;/div&gt;" style="whiteSpace=wrap;html=1;hachureGap=4;fontFamily=Architects Daughter;fontSource=https%3A%2F%2Ffonts.googleapis.com%2Fcss%3Ffamily%3DArchitects%2BDaughter;fontSize=20;" vertex="1" parent="1">
                    <mxGeometry x="320" y="380" width="120" height="50" as="geometry"/>
                </mxCell>
                <mxCell id="24" value="&lt;div style=&quot;line-height: 24px;&quot;&gt;&lt;span style=&quot;font-size: 16px;&quot;&gt;&lt;font style=&quot;&quot; face=&quot;Garamond&quot;&gt;Entry&lt;/font&gt;&lt;/span&gt;&lt;br&gt;&lt;/div&gt;" style="whiteSpace=wrap;html=1;hachureGap=4;fontFamily=Architects Daughter;fontSource=https%3A%2F%2Ffonts.googleapis.com%2Fcss%3Ffamily%3DArchitects%2BDaughter;fontSize=20;" vertex="1" parent="1">
                    <mxGeometry x="450" y="450" width="120" height="50" as="geometry"/>
                </mxCell>
                <mxCell id="25" value="&lt;div style=&quot;line-height: 24px;&quot;&gt;&lt;span style=&quot;font-size: 16px;&quot;&gt;&lt;font style=&quot;&quot; face=&quot;Garamond&quot;&gt;Entry&lt;/font&gt;&lt;/span&gt;&lt;br&gt;&lt;/div&gt;" style="whiteSpace=wrap;html=1;hachureGap=4;fontFamily=Architects Daughter;fontSource=https%3A%2F%2Ffonts.googleapis.com%2Fcss%3Ffamily%3DArchitects%2BDaughter;fontSize=20;" vertex="1" parent="1">
                    <mxGeometry x="200" y="450" width="120" height="50" as="geometry"/>
                </mxCell>
                <mxCell id="29" value="" style="edgeStyle=none;html=1;fontSize=14;fontColor=#FFFFFF;" edge="1" parent="1" source="28" target="24">
                    <mxGeometry relative="1" as="geometry"/>
                </mxCell>
                <mxCell id="28" value="" style="shape=curlyBracket;whiteSpace=wrap;html=1;rounded=1;labelPosition=left;verticalLabelPosition=middle;align=right;verticalAlign=middle;fontSize=14;fontColor=#FFFFFF;rotation=90;" vertex="1" parent="1">
                    <mxGeometry x="505" y="490" width="10" height="70" as="geometry"/>
                </mxCell>
                <mxCell id="31" value="" style="edgeStyle=none;html=1;fontSize=14;fontColor=#FFFFFF;" edge="1" parent="1" source="30" target="25">
                    <mxGeometry relative="1" as="geometry"/>
                </mxCell>
                <mxCell id="30" value="" style="shape=curlyBracket;whiteSpace=wrap;html=1;rounded=1;labelPosition=left;verticalLabelPosition=middle;align=right;verticalAlign=middle;fontSize=14;fontColor=#FFFFFF;rotation=90;" vertex="1" parent="1">
                    <mxGeometry x="255" y="490" width="10" height="70" as="geometry"/>
                </mxCell>
                <mxCell id="32" value="encoding" style="text;html=1;align=center;verticalAlign=middle;resizable=0;points=[];autosize=1;strokeColor=none;fillColor=none;fontSize=14;fontColor=#FFFFFF;horizontal=1;textDirection=ltr;labelPosition=center;verticalLabelPosition=middle;" vertex="1" parent="1">
                    <mxGeometry x="170" y="540" width="80" height="30" as="geometry"/>
                </mxCell>
                <mxCell id="44" value="" style="edgeStyle=none;html=1;fontSize=14;fontColor=#FFFFFF;" edge="1" parent="1" source="33" target="41">
                    <mxGeometry relative="1" as="geometry"/>
                </mxCell>
                <mxCell id="33" value="key" style="text;html=1;align=center;verticalAlign=middle;resizable=0;points=[];autosize=1;strokeColor=none;fillColor=none;fontSize=14;fontColor=#FFFFFF;" vertex="1" parent="1">
                    <mxGeometry x="235" y="540" width="50" height="30" as="geometry"/>
                </mxCell>
                <mxCell id="47" value="" style="edgeStyle=none;html=1;fontSize=14;fontColor=#FFFFFF;entryX=0.588;entryY=0;entryDx=0;entryDy=0;entryPerimeter=0;" edge="1" parent="1" source="34" target="46">
                    <mxGeometry relative="1" as="geometry"/>
                </mxCell>
                <mxCell id="34" value="value" style="text;html=1;align=center;verticalAlign=middle;resizable=0;points=[];autosize=1;strokeColor=none;fillColor=none;fontSize=14;fontColor=#FFFFFF;" vertex="1" parent="1">
                    <mxGeometry x="270" y="540" width="60" height="30" as="geometry"/>
                </mxCell>
                <mxCell id="35" value="encoding" style="text;html=1;align=center;verticalAlign=middle;resizable=0;points=[];autosize=1;strokeColor=none;fillColor=none;fontSize=14;fontColor=#FFFFFF;" vertex="1" parent="1">
                    <mxGeometry x="414" y="540" width="80" height="30" as="geometry"/>
                </mxCell>
                <mxCell id="45" value="" style="edgeStyle=none;html=1;fontSize=14;fontColor=#FFFFFF;entryX=0.608;entryY=-0.04;entryDx=0;entryDy=0;entryPerimeter=0;" edge="1" parent="1" source="36" target="41">
                    <mxGeometry relative="1" as="geometry"/>
                </mxCell>
                <mxCell id="36" value="key" style="text;html=1;align=center;verticalAlign=middle;resizable=0;points=[];autosize=1;strokeColor=none;fillColor=none;fontSize=14;fontColor=#FFFFFF;" vertex="1" parent="1">
                    <mxGeometry x="485" y="540" width="50" height="30" as="geometry"/>
                </mxCell>
                <mxCell id="48" value="" style="edgeStyle=none;html=1;fontSize=14;fontColor=#FFFFFF;" edge="1" parent="1" source="37" target="46">
                    <mxGeometry relative="1" as="geometry"/>
                </mxCell>
                <mxCell id="37" value="value" style="text;html=1;align=center;verticalAlign=middle;resizable=0;points=[];autosize=1;strokeColor=none;fillColor=none;fontSize=14;fontColor=#FFFFFF;" vertex="1" parent="1">
                    <mxGeometry x="520" y="540" width="60" height="30" as="geometry"/>
                </mxCell>
                <mxCell id="38" value="" style="edgeStyle=none;html=1;fontSize=14;fontColor=#FFFFFF;exitX=0.5;exitY=1;exitDx=0;exitDy=0;entryX=0.517;entryY=0;entryDx=0;entryDy=0;entryPerimeter=0;" edge="1" parent="1" source="15" target="39">
                    <mxGeometry relative="1" as="geometry">
                        <mxPoint x="209.5" y="550" as="sourcePoint"/>
                        <mxPoint x="210" y="560" as="targetPoint"/>
                    </mxGeometry>
                </mxCell>
                <mxCell id="39" value="NULL" style="text;html=1;align=center;verticalAlign=middle;resizable=0;points=[];autosize=1;strokeColor=none;fillColor=none;fontSize=14;fontColor=#FFFFFF;" vertex="1" parent="1">
                    <mxGeometry x="650" y="450" width="60" height="30" as="geometry"/>
                </mxCell>
                <mxCell id="41" value="&lt;div style=&quot;line-height: 24px;&quot;&gt;&lt;span style=&quot;font-size: 16px;&quot;&gt;&lt;font style=&quot;&quot; face=&quot;Garamond&quot;&gt;C++ String&lt;/font&gt;&lt;/span&gt;&lt;br&gt;&lt;/div&gt;" style="whiteSpace=wrap;html=1;hachureGap=4;fontFamily=Architects Daughter;fontSource=https%3A%2F%2Ffonts.googleapis.com%2Fcss%3Ffamily%3DArchitects%2BDaughter;fontSize=20;" vertex="1" parent="1">
                    <mxGeometry x="165" y="640" width="120" height="50" as="geometry"/>
                </mxCell>
                <mxCell id="46" value="底层数据结构" style="rounded=0;whiteSpace=wrap;html=1;fontSize=14;fontColor=#FFFFFF;fillColor=none;dashed=1;labelPosition=center;verticalLabelPosition=middle;align=right;verticalAlign=middle;textDirection=ltr;" vertex="1" parent="1">
                    <mxGeometry x="380" y="630" width="240" height="130" as="geometry"/>
                </mxCell>
                <mxCell id="60" value="" style="edgeStyle=none;html=1;fontFamily=Garamond;fontSize=16;fontColor=#FFFFFF;entryX=0;entryY=0.5;entryDx=0;entryDy=0;exitX=0;exitY=0.5;exitDx=0;exitDy=0;" edge="1" parent="1" source="42" target="50">
                    <mxGeometry relative="1" as="geometry">
                        <Array as="points">
                            <mxPoint x="350" y="665"/>
                            <mxPoint x="350" y="805"/>
                        </Array>
                    </mxGeometry>
                </mxCell>
                <mxCell id="42" value="&lt;div style=&quot;line-height: 24px;&quot;&gt;&lt;span style=&quot;font-size: 16px;&quot;&gt;&lt;font style=&quot;&quot; face=&quot;Garamond&quot;&gt;String对象&lt;/font&gt;&lt;/span&gt;&lt;br&gt;&lt;/div&gt;" style="whiteSpace=wrap;html=1;hachureGap=4;fontFamily=Architects Daughter;fontSource=https%3A%2F%2Ffonts.googleapis.com%2Fcss%3Ffamily%3DArchitects%2BDaughter;fontSize=20;" vertex="1" parent="1">
                    <mxGeometry x="390" y="640" width="120" height="50" as="geometry"/>
                </mxCell>
                <mxCell id="43" value="&lt;div style=&quot;line-height: 24px;&quot;&gt;&lt;span style=&quot;font-size: 16px;&quot;&gt;&lt;font style=&quot;&quot; face=&quot;Garamond&quot;&gt;List对象&lt;/font&gt;&lt;/span&gt;&lt;br&gt;&lt;/div&gt;" style="whiteSpace=wrap;html=1;hachureGap=4;fontFamily=Architects Daughter;fontSource=https%3A%2F%2Ffonts.googleapis.com%2Fcss%3Ffamily%3DArchitects%2BDaughter;fontSize=20;" vertex="1" parent="1">
                    <mxGeometry x="390" y="700" width="120" height="50" as="geometry"/>
                </mxCell>
                <mxCell id="50" value="&lt;div style=&quot;line-height: 24px;&quot;&gt;&lt;font style=&quot;font-size: 16px;&quot; face=&quot;Garamond&quot;&gt;uint32_t len&lt;/font&gt;&lt;br&gt;&lt;/div&gt;" style="whiteSpace=wrap;html=1;hachureGap=4;fontFamily=Architects Daughter;fontSource=https%3A%2F%2Ffonts.googleapis.com%2Fcss%3Ffamily%3DArchitects%2BDaughter;fontSize=20;" vertex="1" parent="1">
                    <mxGeometry x="380" y="780" width="120" height="50" as="geometry"/>
                </mxCell>
                <mxCell id="51" value="&lt;div style=&quot;line-height: 24px;&quot;&gt;&lt;span style=&quot;font-size: 16px;&quot;&gt;&lt;font style=&quot;&quot; face=&quot;Garamond&quot;&gt;void* data&lt;/font&gt;&lt;/span&gt;&lt;br&gt;&lt;/div&gt;" style="whiteSpace=wrap;html=1;hachureGap=4;fontFamily=Architects Daughter;fontSource=https%3A%2F%2Ffonts.googleapis.com%2Fcss%3Ffamily%3DArchitects%2BDaughter;fontSize=20;" vertex="1" parent="1">
                    <mxGeometry x="500" y="780" width="120" height="50" as="geometry"/>
                </mxCell>
                <mxCell id="55" value="&lt;div style=&quot;line-height: 24px;&quot;&gt;&lt;font style=&quot;font-size: 16px;&quot; face=&quot;Garamond&quot;&gt;uint32_t len&lt;/font&gt;&lt;br&gt;&lt;/div&gt;" style="whiteSpace=wrap;html=1;hachureGap=4;fontFamily=Architects Daughter;fontSource=https%3A%2F%2Ffonts.googleapis.com%2Fcss%3Ffamily%3DArchitects%2BDaughter;fontSize=20;" vertex="1" parent="1">
                    <mxGeometry x="380" y="860" width="120" height="50" as="geometry"/>
                </mxCell>
                <mxCell id="56" value="&lt;div style=&quot;line-height: 24px;&quot;&gt;&lt;span style=&quot;font-size: 16px;&quot;&gt;&lt;font style=&quot;&quot; face=&quot;Garamond&quot;&gt;void* data&lt;/font&gt;&lt;/span&gt;&lt;br&gt;&lt;/div&gt;" style="whiteSpace=wrap;html=1;hachureGap=4;fontFamily=Architects Daughter;fontSource=https%3A%2F%2Ffonts.googleapis.com%2Fcss%3Ffamily%3DArchitects%2BDaughter;fontSize=20;" vertex="1" parent="1">
                    <mxGeometry x="500" y="860" width="120" height="50" as="geometry"/>
                </mxCell>
                <mxCell id="57" value="&lt;div style=&quot;line-height: 24px;&quot;&gt;&lt;font style=&quot;font-size: 16px;&quot; face=&quot;Garamond&quot;&gt;uint32_t len&lt;/font&gt;&lt;br&gt;&lt;/div&gt;" style="whiteSpace=wrap;html=1;hachureGap=4;fontFamily=Architects Daughter;fontSource=https%3A%2F%2Ffonts.googleapis.com%2Fcss%3Ffamily%3DArchitects%2BDaughter;fontSize=20;" vertex="1" parent="1">
                    <mxGeometry x="620" y="860" width="120" height="50" as="geometry"/>
                </mxCell>
                <mxCell id="58" value="&lt;div style=&quot;line-height: 24px;&quot;&gt;&lt;span style=&quot;font-size: 16px;&quot;&gt;&lt;font style=&quot;&quot; face=&quot;Garamond&quot;&gt;void* data&lt;/font&gt;&lt;/span&gt;&lt;br&gt;&lt;/div&gt;" style="whiteSpace=wrap;html=1;hachureGap=4;fontFamily=Architects Daughter;fontSource=https%3A%2F%2Ffonts.googleapis.com%2Fcss%3Ffamily%3DArchitects%2BDaughter;fontSize=20;" vertex="1" parent="1">
                    <mxGeometry x="740" y="860" width="120" height="50" as="geometry"/>
                </mxCell>
                <mxCell id="59" value="&lt;div style=&quot;line-height: 24px;&quot;&gt;&lt;font style=&quot;&quot; face=&quot;Garamond&quot;&gt;&lt;span style=&quot;font-size: 16px;&quot;&gt;............&lt;/span&gt;&lt;/font&gt;&lt;/div&gt;" style="whiteSpace=wrap;html=1;hachureGap=4;fontFamily=Architects Daughter;fontSource=https%3A%2F%2Ffonts.googleapis.com%2Fcss%3Ffamily%3DArchitects%2BDaughter;fontSize=20;" vertex="1" parent="1">
                    <mxGeometry x="860" y="860" width="120" height="50" as="geometry"/>
                </mxCell>
                <mxCell id="61" value="" style="edgeStyle=none;html=1;fontFamily=Garamond;fontSize=16;fontColor=#FFFFFF;entryX=0;entryY=0.5;entryDx=0;entryDy=0;exitX=0;exitY=0.5;exitDx=0;exitDy=0;" edge="1" parent="1" source="43">
                    <mxGeometry relative="1" as="geometry">
                        <mxPoint x="390" y="750" as="sourcePoint"/>
                        <mxPoint x="380" y="890" as="targetPoint"/>
                        <Array as="points">
                            <mxPoint x="360" y="725"/>
                            <mxPoint x="360" y="830"/>
                            <mxPoint x="360" y="890"/>
                        </Array>
                    </mxGeometry>
                </mxCell>
            </root>
        </mxGraphModel>
    </diagram>
</mxfile>